# xmcd
#
# Track frame offsets: 
#        150
#        24747
#        48410
#        76148
#        122480
#        139581
#        172624
#
# Disc length: 2655 seconds
#
# Revision: 0
# Processed by: cddbd v1.5.2PL0 Copyright (c) Steve Scherf et al.
# Submitted via: ExactAudioCopy v0.99pb4
#
DISCID=490a5d07
DTITLE=Joe Bonamassa - Live: Nowhere In Particular [CD1]
DYEAR=2008
DGENRE=Blues
TTITLE0=Bridge To Better Days
TTITLE1=Walk In My Shadows
TTITLE2=So Many Roads
TTITLE3=India/Mountain Time
TTITLE4=Another Kind Of Love
TTITLE5=Sloe Gin
TTITLE6=One Of These Days
EXTD=
EXTT0=
EXTT1=
EXTT2=
EXTT3=
EXTT4=
EXTT5=
EXTT6=
PLAYORDER=
